<?xml version="1.0" standalone="no"?>
<!DOCTYPE svg PUBLIC "-//W3C//DTD SVG 20010904//EN"
 "http://www.w3.org/TR/2001/REC-SVG-20010904/DTD/svg10.dtd">
<svg version="1.0" xmlns="http://www.w3.org/2000/svg"
 width="409.000000pt" height="409.000000pt" viewBox="0 0 409.000000 409.000000"
 preserveAspectRatio="xMidYMid meet">
<metadata>
Created by potrace 1.11, written by Peter Selinger 2001-2013
</metadata>
<g transform="translate(0.000000,409.000000) scale(0.100000,-0.100000)"
fill="#000000" stroke="none">
<path d="M31 3501 c-22 -22 -20 -65 5 -113 8 -16 11 -28 7 -28 -4 0 -2 -5 5
-12 7 -7 12 -22 12 -33 0 -12 3 -25 7 -29 4 -3 8 -12 9 -19 2 -12 193 -595
285 -866 26 -79 54 -148 61 -152 7 -5 124 -9 260 -9 302 0 301 -1 259 121 -10
30 -19 56 -19 59 0 3 -3 12 -6 20 -2 8 -19 62 -36 120 -42 139 -46 155 -69
225 -10 33 -26 87 -36 120 -9 33 -22 74 -28 90 -6 17 -12 35 -13 41 -1 7 -19
65 -39 130 -21 65 -38 123 -39 129 -9 43 -62 193 -73 207 -14 15 -43 17 -274
17 -242 1 -261 -1 -278 -18z"/>
<path d="M1743 3501 c-7 -10 -27 -70 -47 -132 -121 -399 -225 -734 -252 -820
-8 -25 -16 -55 -19 -67 -2 -12 -7 -28 -12 -35 -4 -6 -8 -16 -10 -22 -1 -5 -4
-21 -7 -34 -5 -20 -15 -55 -31 -109 -3 -7 -5 -16 -6 -20 -1 -4 -7 -23 -14 -42
-17 -43 -65 -202 -65 -212 0 -5 -6 -25 -14 -45 -8 -21 -24 -72 -36 -113 -26
-89 -27 -93 -29 -103 0 -4 -8 -21 -16 -38 -21 -39 -38 -27 -56 39 -17 63 -16
61 -19 67 -3 5 -3 6 -15 50 -16 63 -42 72 -178 63 -26 -2 -47 -1 -47 2 0 3
-33 4 -72 2 -40 -1 -110 -3 -155 -3 -75 0 -82 -2 -97 -24 -13 -19 -14 -30 -5
-52 6 -15 12 -35 14 -43 2 -8 21 -68 43 -132 22 -64 37 -119 34 -122 -3 -3 -1
-6 5 -6 5 0 10 -6 10 -12 0 -13 176 -554 193 -593 5 -11 11 -33 15 -50 4 -16
12 -43 19 -60 7 -16 26 -69 41 -118 15 -48 34 -92 42 -99 22 -18 399 -16 417
3 8 8 44 106 81 219 37 113 76 230 87 260 11 30 22 62 24 70 2 8 11 35 20 60
9 25 17 52 19 60 2 8 29 92 60 185 32 94 58 175 59 180 1 6 4 15 7 20 4 6 10
24 14 40 10 37 9 32 41 130 14 44 30 89 34 100 5 11 20 58 35 105 15 47 30 94
35 105 9 20 137 407 144 435 8 29 227 695 236 715 15 35 43 129 46 155 7 55 7
55 -288 57 -258 3 -274 2 -285 -16z"/>
<path d="M3020 2739 c-136 -21 -205 -41 -295 -87 -82 -41 -184 -116 -229 -170
-6 -7 -18 -21 -26 -30 -50 -55 -117 -168 -148 -247 -10 -27 -22 -59 -27 -70
-4 -11 -9 -24 -10 -30 -2 -5 -10 -37 -18 -70 -30 -115 -38 -192 -40 -355 -2
-182 11 -307 45 -430 11 -41 21 -79 22 -85 11 -42 76 -176 110 -225 54 -80
122 -150 200 -205 51 -36 192 -104 232 -111 15 -3 31 -7 36 -10 5 -3 53 -14
106 -23 98 -18 348 -21 437 -7 203 34 373 115 528 252 51 46 59 65 41 100 -8
16 -20 31 -25 35 -6 3 -61 55 -122 116 -62 60 -120 112 -130 116 -17 6 -54 -6
-67 -22 -12 -16 -89 -70 -130 -93 -125 -68 -362 -81 -493 -26 -117 48 -213
152 -239 257 -14 59 -15 64 -22 106 -10 67 -10 67 195 65 101 0 191 -1 199 0
47 2 88 1 113 -4 15 -2 27 -2 27 2 0 4 60 6 132 5 160 -2 201 -3 253 -2 22 0
52 -2 68 -5 15 -2 27 -2 27 2 0 4 61 6 136 5 176 -2 171 -7 169 148 -1 63 3
120 8 127 5 7 6 12 0 12 -5 0 -10 28 -11 63 -2 59 -4 78 -17 137 -3 14 -7 34
-10 45 -26 127 -89 271 -159 368 -45 63 -166 187 -183 187 -5 0 -18 8 -29 18
-54 50 -208 110 -354 138 -50 9 -247 11 -300 3z m281 -468 c143 -55 237 -201
243 -376 l1 -30 -394 0 c-450 0 -408 -11 -385 101 36 170 128 279 272 320 67
19 194 12 263 -15z"/>
</g>
</svg>
